# xmcd CD database file
#
# Track frame offsets:
#	150
#	20517
#	32320
#	49180
#	63757
#	73422
#	82985
#	90642
#	97790
#	101700
#	108677
#	127447
#	135987
#	153387
#	163530
#	175115
#	197085
#	231645
#
# Disc length: 3409 seconds
#
# Revision: 0
# Processed by: cddbd v1.5.1PL0 Copyright (c) Steve Scherf et al.
# Submitted via: CDex 1.51
#
DISCID=f10d4f12
DTITLE=Various Artist - ゾイドORIGINAL SOUND TRACK＋ 〜鋼鉄の慟哭〜
DYEAR=2000
DGENRE=Anime
TTITLE0=Wild Flowers
TTITLE1=鋼鉄の慟哭
TTITLE2=奇襲前夜
TTITLE3=見えざる敵
TTITLE4=惑星Zi
TTITLE5=戦士達の休息
TTITLE6=神秘への誘い
TTITLE7=罠
TTITLE8=異国よりの使者
TTITLE9=一触即発
TTITLE10=荒涼なる大地の果てに
TTITLE11=廃墟の街
TTITLE12=追撃の律動
TTITLE13=追撃
TTITLE14=破壊働動
TTITLE15=CHASE
TTITLE16=Song for…
TTITLE17=データ
EXTD=YEAR: 2000
EXTT0=
EXTT1=
EXTT2=
EXTT3=
EXTT4=
EXTT5=
EXTT6=
EXTT7=
EXTT8=
EXTT9=
EXTT10=
EXTT11=
EXTT12=
EXTT13=
EXTT14=
EXTT15=
EXTT16=
EXTT17=
PLAYORDER=
